<svg width="24" height="25" viewBox="0 0 24 25" fill="none" xmlns="http://www.w3.org/2000/svg">
<path d="M8 12.88C7.99924 12.7484 8.02446 12.6179 8.07423 12.4961C8.12399 12.3743 8.19732 12.2634 8.29 12.17L14.29 6.17001C14.4783 5.9817 14.7337 5.87592 15 5.87592C15.2663 5.87592 15.5217 5.9817 15.71 6.17001C15.8983 6.35831 16.0041 6.61371 16.0041 6.88001C16.0041 7.14631 15.8983 7.4017 15.71 7.59001L10.41 12.88L15.7 18.17C15.8638 18.3613 15.9494 18.6074 15.9397 18.8591C15.93 19.1107 15.8257 19.3495 15.6476 19.5276C15.4695 19.7057 15.2307 19.81 14.9791 19.8197C14.7274 19.8294 14.4813 19.7438 14.29 19.58L8.29 13.58C8.10525 13.3937 8.0011 13.1423 8 12.88Z" fill="white" fill-opacity="0.6"/>
</svg>
