<svg width="24" height="25" viewBox="0 0 24 25" fill="none" xmlns="http://www.w3.org/2000/svg">
<path d="M16 12.88C16.0008 12.7484 15.9755 12.6179 15.9258 12.4961C15.876 12.3743 15.8027 12.2634 15.71 12.17L9.71 6.17001C9.5217 5.9817 9.2663 5.87592 9 5.87592C8.7337 5.87592 8.47831 5.9817 8.29 6.17001C8.1017 6.35831 7.99591 6.61371 7.99591 6.88001C7.99591 7.14631 8.1017 7.4017 8.29 7.59001L13.59 12.88L8.3 18.17C8.13618 18.3613 8.05057 18.6074 8.06029 18.8591C8.07001 19.1107 8.17434 19.3495 8.35244 19.5276C8.53053 19.7057 8.76927 19.81 9.02095 19.8197C9.27262 19.8294 9.5187 19.7438 9.71 19.58L15.71 13.58C15.8947 13.3937 15.9989 13.1423 16 12.88Z" fill="white" fill-opacity="0.6"/>
</svg>
