<svg width="24" height="24" viewBox="0 0 24 24" fill="none" xmlns="http://www.w3.org/2000/svg">
<path d="M3.06066 2.93934C2.47487 3.52513 2.47487 4.47487 3.06066 5.06066L17.9099 19.9099C18.4957 20.4957 19.4454 20.4957 20.0312 19.9099C20.617 19.3241 20.617 18.3744 20.0312 17.7886L5.18198 2.93934C4.59619 2.35355 3.64645 2.35355 3.06066 2.93934Z" fill="white" fill-opacity="0.8"/>
<path d="M3.06066 20.0607C2.47487 19.4749 2.47487 18.5251 3.06066 17.9393L17.9099 3.0901C18.4957 2.50431 19.4454 2.50431 20.0312 3.0901C20.617 3.67588 20.617 4.62563 20.0312 5.21142L5.18198 20.0607C4.59619 20.6464 3.64645 20.6464 3.06066 20.0607Z" fill="white" fill-opacity="0.8"/>
</svg>
