<svg width="55" height="43" viewBox="0 0 55 43" fill="none" xmlns="http://www.w3.org/2000/svg">
<g clip-path="url(#clip0_0_885)">
<g clip-path="url(#clip1_0_885)">
<g clip-path="url(#clip2_0_885)">
<path fill-rule="evenodd" clip-rule="evenodd" d="M18.6278 36.3553C15.036 35.313 11.8546 34.9828 8.86943 35.5083C10.091 35.5275 11.2242 35.6752 12.2843 35.8927C13.7745 36.1985 15.1159 36.6421 16.3164 37.039C16.4093 37.0697 16.5014 37.1002 16.5925 37.1302C17.8839 37.5559 18.9803 37.8986 20.0101 38.0027L20.0529 40.0292L19.9355 39.0188C18.9218 38.9163 17.8678 38.6045 16.7311 38.2345C16.5192 38.1655 16.3043 38.0945 16.0864 38.0224C13.0209 37.0091 9.33123 35.7895 4.249 37.0899C3.0356 37.4005 1.74281 37.8546 0.360168 38.4894C1.56122 37.5273 2.7625 36.7397 3.97763 36.1159C8.50255 33.7921 13.22 33.7355 18.8365 35.3653C24.3966 36.9789 29.6948 37.5988 34.0113 36.2466C35.0009 35.9366 35.939 35.5229 36.8168 34.9937C36.1485 35.7562 35.32 36.4983 34.3618 37.1917C29.3825 40.7951 20.8999 43.0862 13.1824 40.121C12.085 39.6994 11.003 39.1714 9.94877 38.5259C11.1124 38.8201 12.2687 39.0051 13.3594 39.1156C14.5486 39.2361 15.66 39.2679 16.6183 39.2561C18.6061 39.2314 19.9355 39.0188 19.9355 39.0188C20.0529 40.0292 20.0531 40.0292 20.0529 40.0292L20.0508 40.0294L20.0469 40.0301L20.0337 40.0322C20.0227 40.0339 20.0068 40.0363 19.9865 40.0393C19.9457 40.0451 19.8868 40.0535 19.8111 40.0635C19.6592 40.0835 19.4392 40.1103 19.1606 40.1379C18.7691 40.1769 18.2611 40.218 17.6624 40.2456C20.2256 40.6179 22.7939 40.4925 25.2091 40.0098C27.4894 39.5541 29.6066 38.7855 31.4318 37.8391C27.5178 38.349 23.1071 37.6553 18.6278 36.3553Z" fill="#F5B923"/>
<path d="M18.6278 36.3553L18.8212 35.4384M18.6278 36.3553C15.036 35.313 11.8546 34.9828 8.86943 35.5083C10.091 35.5275 11.2242 35.6752 12.2843 35.8927C13.7745 36.1985 15.1159 36.6421 16.3164 37.039C16.4093 37.0697 16.5014 37.1002 16.5925 37.1302C17.8839 37.5559 18.9803 37.8986 20.0101 38.0027L20.0529 40.0292M18.6278 36.3553C23.1071 37.6553 27.5178 38.349 31.4318 37.8391C29.6066 38.7855 27.4894 39.5541 25.2091 40.0098C22.7939 40.4925 20.2256 40.6179 17.6624 40.2456C18.2611 40.218 18.7691 40.1769 19.1606 40.1379C19.4392 40.1103 19.6592 40.0835 19.8111 40.0635C19.8868 40.0535 19.9457 40.0451 19.9865 40.0393C20.0068 40.0363 20.0227 40.0339 20.0337 40.0322L20.0469 40.0301L20.0508 40.0294L20.0529 40.0292M20.0529 40.0292L19.9355 39.0188M20.0529 40.0292C20.0531 40.0292 20.0529 40.0292 19.9355 39.0188M19.9355 39.0188C18.9218 38.9163 17.8678 38.6045 16.7311 38.2345C16.5192 38.1655 16.3043 38.0945 16.0864 38.0224C13.0209 37.0091 9.33123 35.7895 4.249 37.0899C3.0356 37.4005 1.74281 37.8546 0.360168 38.4894C1.56122 37.5273 2.7625 36.7397 3.97763 36.1159C8.50255 33.7921 13.22 33.7355 18.8365 35.3653C24.3966 36.9789 29.6948 37.5988 34.0113 36.2466C35.0009 35.9366 35.939 35.5229 36.8168 34.9937C36.1485 35.7562 35.32 36.4983 34.3618 37.1917C29.3825 40.7951 20.8999 43.0862 13.1824 40.121C12.085 39.6994 11.003 39.1714 9.94877 38.5259C11.1124 38.8201 12.2687 39.0051 13.3594 39.1156C14.5486 39.2361 15.66 39.2679 16.6183 39.2561C18.6061 39.2314 19.9355 39.0188 19.9355 39.0188Z" stroke="#F5B923" stroke-width="1.26697"/>
<path fill-rule="evenodd" clip-rule="evenodd" d="M50.1702 13.6117C49.9651 13.0843 49.8501 12.3964 49.7858 11.9148C49.7526 11.6656 49.7294 11.4428 49.7142 11.2798L48.0692 8.6748L46.8242 6.71414L47.6839 6.17127C47.9899 5.97808 48.212 5.80652 48.3997 5.52937C48.2652 5.5813 48.1344 5.62888 48.0089 5.67463C47.969 5.68915 47.9295 5.70349 47.8907 5.71772C47.1312 5.99606 46.5238 6.24671 45.9383 6.91811L45.6553 7.24239L45.257 7.20466C35.391 6.27019 30.5066 12.9566 29.1125 14.8649C29.0634 14.932 29.0186 14.9935 28.9781 15.0482C28.101 16.2364 27.3338 17.5087 26.5755 18.8181C26.4102 19.1034 26.2447 19.3918 26.0785 19.6814C25.4901 20.7066 24.8919 21.7491 24.2557 22.7439C22.6083 25.3204 20.6309 27.7044 17.5546 29.1605L17.5515 29.1617L17.5485 29.1633C15.9146 29.9198 14.2351 30.5381 12.5229 31.013L12.5198 31.0139L12.5169 31.0147C12.1698 31.1079 11.8423 31.2111 11.5336 31.3214C12.3924 31.2905 13.2593 31.3246 14.1274 31.4035C16.472 31.617 18.8915 32.1679 21.235 32.7014C21.597 32.7839 21.9572 32.8659 22.315 32.9462C25.0216 33.5534 27.5999 34.0645 29.9767 34.0122C32.309 33.961 34.3879 33.3675 36.1613 31.8326C38.8881 28.3916 42.7024 27.1321 45.2043 27.5027L45.9103 27.6073L45.9556 28.4231C45.9848 28.9488 45.861 29.5074 45.694 30.0037C45.521 30.5178 45.2727 31.0498 44.9811 31.5483C44.5271 32.3245 43.9045 33.1264 43.1996 33.6355C43.1337 34.0007 42.9727 34.3178 42.7359 34.5614C42.3942 34.9126 41.973 35.0326 41.6702 35.0445C41.4697 35.0524 41.2325 34.9972 41.086 34.9608C40.9052 34.9161 40.705 34.857 40.5246 34.8007C40.4812 34.7872 40.4385 34.7735 40.3968 34.7602C39.7049 35.8113 39.3408 36.946 39.1507 37.8755C39.1365 37.9445 39.1235 38.0123 39.1112 38.0788C39.8381 37.6597 40.4476 37.2154 40.92 36.8296C41.2876 36.5294 41.5697 36.2668 41.7573 36.0822C41.851 35.99 41.9208 35.9175 41.9657 35.8698C41.9881 35.846 42.0042 35.8284 42.0139 35.8178C42.0188 35.8125 42.022 35.8088 42.0237 35.807L42.0246 35.806L42.9002 34.8104L43.3672 35.9755C43.381 35.9717 43.396 35.9674 43.4123 35.9622C43.4881 35.938 43.5723 35.9024 43.6563 35.861C43.6723 35.8531 43.6879 35.8453 43.7031 35.8374C45.1403 32.1304 46.7776 29.6818 47.783 28.3886C47.8075 28.357 47.8675 28.212 47.8463 27.8765C47.8385 27.7515 47.8212 27.6342 47.8039 27.5412L46.9346 26.3582C45.1805 25.404 42.6666 25.0596 40.0544 25.1313C37.3876 25.2044 34.7484 25.7068 32.9627 26.306L32.2659 24.5111L32.7205 25.3543C34.1758 24.8658 36.1504 24.4453 38.2489 24.2488C38.5128 24.2241 38.7785 24.203 39.0456 24.1857C42.0922 23.9881 45.2918 24.2923 47.4775 25.5592L48.5899 27.0731C48.5899 27.0731 48.9583 28.3662 48.4272 29.0489C47.4439 30.3139 45.7943 32.7806 44.37 36.5597C44.37 36.5597 43.7387 36.9855 43.2788 36.9824C43.1538 36.9816 43.0491 36.9464 42.9626 36.8957C42.7308 36.7596 42.6313 36.5117 42.6313 36.5117C42.6313 36.5117 42.4004 36.7742 41.968 37.1667C41.3495 37.7279 40.3195 38.5544 38.9645 39.2575C38.6857 39.402 38.3934 39.5413 38.0881 39.672C38.0881 39.672 38.0784 39.2454 38.1592 38.5757C38.306 37.3604 38.751 35.3446 40.0932 33.6249C40.0932 33.6249 41.3316 34.0656 41.6407 34.0534C41.95 34.0414 42.4788 33.7914 42.3497 33.0304C43.4295 32.5188 44.5493 30.8004 44.9461 29.4643C44.9705 29.3819 44.9922 29.3011 45.0111 29.2219C45.0756 28.9502 45.1055 28.6997 45.0937 28.4862C42.8685 28.1564 39.2969 29.3036 36.7482 32.566C32.5303 36.2829 26.8465 34.9894 21.0616 33.673C16.8963 32.7251 12.6784 31.7652 8.91731 32.655C8.11056 32.8458 7.32481 33.1219 6.56509 33.5012C6.58353 33.4921 6.62989 33.4414 6.70625 33.358C6.96522 33.0745 7.56915 32.4138 8.59805 31.719C9.49675 31.1121 10.7196 30.4791 12.32 30.0493C13.9912 29.5855 15.6308 28.9821 17.2254 28.2437C21.2128 26.3564 23.2547 22.7992 25.3501 19.1484C26.2726 17.5411 27.2056 15.9157 28.3195 14.4066C28.3601 14.3518 28.405 14.2903 28.4545 14.2228C29.8823 12.2684 35.0176 5.23983 45.3281 6.21638C46.0999 5.33145 46.9148 5.03365 47.7185 4.74C48.1103 4.59676 48.4997 4.45452 48.88 4.24562C49.221 4.05826 49.5548 3.8173 49.8769 3.47394C49.8121 4.05008 49.7219 4.52565 49.6121 4.92236C49.4037 5.67449 49.1242 6.14322 48.8111 6.47677C48.5867 6.71581 48.3451 6.88543 48.1001 7.04017L48.7682 8.09222L49.6766 9.52898L50.5519 10.9171C50.5519 10.9171 50.6501 12.414 50.9585 13.2067C51.4418 14.4468 53.8073 18.9806 53.8073 18.9806C53.9364 19.2937 54.0949 19.5712 54.2397 19.8251C54.6027 20.461 54.8809 20.9482 54.4019 21.4721C54.1603 21.7397 54.182 21.9019 54.215 22.1477L54.218 22.1706C54.2392 22.3281 52.9246 22.8587 52.4652 22.9722C51.2784 23.2649 50.4626 22.7177 50.053 21.9014C50.0436 21.8829 50.0346 21.8643 50.0257 21.8455C50.0195 21.8323 50.0135 21.819 50.0074 21.8057C49.8253 21.4031 49.7376 20.9429 49.7487 20.4893C49.7553 20.2155 49.7977 19.9443 49.8769 19.6892L49.1296 19.192L50.6903 20.0222C50.537 20.5157 50.6106 21.123 50.8763 21.5385C51.1025 21.8924 51.5206 22.1908 52.2834 22.0029C52.4515 21.9612 52.8489 21.8198 53.2162 21.6603C53.2688 21.6375 53.3182 21.6154 53.364 21.5943C53.4292 21.2683 53.5825 21.0153 53.7555 20.8117C53.7028 20.6942 53.6307 20.5676 53.5202 20.3735C53.5018 20.3415 53.4824 20.3074 53.4619 20.2713C53.3356 20.0488 53.1813 19.7705 53.0458 19.4508L53.0392 19.4381C53.0216 19.4043 52.9958 19.3546 52.9628 19.2912C52.8968 19.1641 52.8022 18.9814 52.6871 18.7583C52.4569 18.3123 52.1449 17.7042 51.8174 17.0569C51.1755 15.7881 50.435 14.2911 50.1702 13.6117ZM49.649 20.3928C49.7323 19.9756 49.8769 19.6892 49.8769 19.6892C49.1296 19.192 49.1296 19.192 49.1296 19.192L49.129 19.1934L49.1282 19.1948L49.1266 19.1982L49.1225 19.2064C49.1196 19.2124 49.1159 19.2197 49.112 19.2282C49.1039 19.2453 49.0936 19.2672 49.0819 19.2938C49.0584 19.3469 49.0283 19.4189 48.9956 19.5069C48.9677 19.5818 48.9373 19.6701 48.9074 19.7698C47.9046 19.0275 46.8825 18.6354 46.0345 18.31C45.9303 18.27 45.8288 18.2311 45.7301 18.1926C45.0325 17.9202 44.5372 17.6947 44.1769 17.3825C43.8623 17.11 43.633 16.7549 43.5289 16.1281L43.5286 16.1254C43.5275 16.1175 43.5254 16.1025 43.5229 16.0809C43.518 16.038 43.511 15.9694 43.5048 15.8801C43.4926 15.7004 43.4843 15.4419 43.5014 15.1392C43.5362 14.5233 43.6727 13.7901 44.0398 13.1598L42.7485 11.8669C42.6593 11.9578 40.841 13.8111 41.1599 16.6438C38.7275 18.1691 37.6268 20.4461 37.3809 22.782C35.7868 23.0408 34.5879 23.4191 33.7517 23.7569C33.2735 23.9501 32.9147 24.1296 32.6689 24.2654C32.546 24.3333 32.4516 24.3903 32.3846 24.4325C32.3511 24.4536 32.3247 24.471 32.3048 24.4844C32.3012 24.4868 32.2979 24.489 32.2948 24.4912C32.2892 24.4949 32.2844 24.4982 32.2803 24.5011L32.2772 24.5031C32.2753 24.5045 32.2734 24.5058 32.2717 24.5069L32.2685 24.5093L32.2659 24.5111C32.2659 24.5111 32.2659 24.5111 32.7205 25.3543C32.7205 25.3543 34.4109 24.1527 38.1914 23.6634C38.1939 23.5282 38.1995 23.393 38.2081 23.2577C38.3537 20.9683 39.3904 18.6923 42.0155 17.2554C42.0561 17.2331 42.0971 17.2111 42.1384 17.1893C42.0745 16.9338 42.0329 16.686 42.01 16.4468C42.0099 16.4447 42.0096 16.4425 42.0094 16.4404C41.796 14.1792 43.2489 12.683 43.322 12.6085C42.3598 14.2603 42.6787 16.3026 42.6787 16.3026C42.718 16.5429 42.7726 16.7601 42.8413 16.9578C42.9201 17.1848 43.0173 17.3859 43.1308 17.5656C43.6913 18.4534 44.6485 18.8223 45.7443 19.2444C46.6917 19.6096 47.7427 20.0146 48.7301 20.8294C48.7884 20.8773 48.8463 20.9267 48.904 20.9776C49.2248 21.2607 49.5377 21.5901 49.8368 21.9788C49.5411 21.4265 49.5606 20.8359 49.649 20.3928Z" fill="#F5B923"/>
<path d="M32.7205 25.3543L32.2659 24.5111M32.7205 25.3543C34.1758 24.8658 36.1504 24.4453 38.2489 24.2488C38.5128 24.2241 38.7785 24.203 39.0456 24.1857C42.0922 23.9881 45.2918 24.2923 47.4775 25.5592L48.5899 27.0731C48.5899 27.0731 48.9583 28.3662 48.4272 29.0489C47.4439 30.3139 45.7943 32.7806 44.37 36.5597C44.37 36.5597 43.7387 36.9855 43.2788 36.9824C43.1538 36.9816 43.0491 36.9464 42.9626 36.8957C42.7308 36.7596 42.6313 36.5117 42.6313 36.5117C42.6313 36.5117 42.4004 36.7742 41.968 37.1667C41.3495 37.7279 40.3195 38.5544 38.9645 39.2575C38.6857 39.402 38.3934 39.5413 38.0881 39.672C38.0881 39.672 38.0784 39.2454 38.1592 38.5757C38.306 37.3604 38.751 35.3446 40.0932 33.6249C40.0932 33.6249 41.3316 34.0656 41.6407 34.0534C41.95 34.0414 42.4788 33.7914 42.3497 33.0304C43.4295 32.5188 44.5493 30.8004 44.9461 29.4643C44.9705 29.3819 44.9922 29.3011 45.0111 29.2219C45.0756 28.9502 45.1055 28.6997 45.0937 28.4862C42.8685 28.1564 39.2969 29.3036 36.7482 32.566C32.5303 36.2829 26.8465 34.9894 21.0616 33.673C16.8963 32.7251 12.6784 31.7652 8.91731 32.655C8.11056 32.8458 7.32481 33.1219 6.56509 33.5012C6.58353 33.4921 6.62989 33.4414 6.70625 33.358C6.96522 33.0745 7.56915 32.4138 8.59805 31.719C9.49675 31.1121 10.7196 30.4791 12.32 30.0493C13.9912 29.5855 15.6308 28.9821 17.2254 28.2437C21.2128 26.3564 23.2547 22.7992 25.3501 19.1484C26.2726 17.5411 27.2056 15.9157 28.3195 14.4066C28.3601 14.3518 28.405 14.2903 28.4545 14.2228C29.8823 12.2684 35.0176 5.23983 45.3281 6.21638C46.0999 5.33145 46.9148 5.03365 47.7185 4.74C48.1103 4.59676 48.4997 4.45452 48.88 4.24562C49.221 4.05826 49.5548 3.8173 49.8769 3.47394C49.8121 4.05008 49.7219 4.52565 49.6121 4.92236C49.4037 5.67449 49.1242 6.14322 48.8111 6.47677C48.5867 6.71581 48.3451 6.88543 48.1001 7.04017L48.7682 8.09222L49.6766 9.52898L50.5519 10.9171C50.5519 10.9171 50.6501 12.414 50.9585 13.2067C51.4418 14.4468 53.8073 18.9806 53.8073 18.9806C53.9364 19.2937 54.0949 19.5712 54.2397 19.8251C54.6027 20.461 54.8809 20.9482 54.4019 21.4721C54.1603 21.7397 54.182 21.9019 54.215 22.1477L54.218 22.1706C54.2392 22.3281 52.9246 22.8587 52.4652 22.9722C51.2784 23.2649 50.4626 22.7177 50.053 21.9014C50.0436 21.8829 50.0346 21.8643 50.0257 21.8455C50.0195 21.8323 50.0135 21.819 50.0074 21.8057C49.8253 21.4031 49.7376 20.9429 49.7487 20.4893C49.7553 20.2155 49.7977 19.9443 49.8769 19.6892M32.7205 25.3543C32.2659 24.5111 32.2659 24.5111 32.2659 24.5111M32.7205 25.3543C32.7205 25.3543 34.4109 24.1527 38.1914 23.6634C38.1939 23.5282 38.1995 23.393 38.2081 23.2577C38.3537 20.9683 39.3904 18.6923 42.0155 17.2554C42.0561 17.2331 42.0971 17.2111 42.1384 17.1893C42.0745 16.9338 42.0329 16.686 42.01 16.4468C42.0099 16.4447 42.0096 16.4425 42.0094 16.4404C41.796 14.1792 43.2489 12.683 43.322 12.6085C42.3598 14.2603 42.6787 16.3026 42.6787 16.3026C42.718 16.5429 42.7726 16.7601 42.8413 16.9578C42.9201 17.1848 43.0173 17.3859 43.1308 17.5656C43.6913 18.4534 44.6485 18.8223 45.7443 19.2444C46.6917 19.6096 47.7427 20.0146 48.7301 20.8294C48.7884 20.8773 48.8463 20.9267 48.904 20.9776C49.2248 21.2607 49.5377 21.5901 49.8368 21.9788C49.5411 21.4265 49.5606 20.8359 49.649 20.3928C49.7323 19.9756 49.8769 19.6892 49.8769 19.6892M32.2659 24.5111L32.9627 26.306C34.7484 25.7068 37.3876 25.2044 40.0544 25.1313C42.6666 25.0596 45.1805 25.404 46.9346 26.3582L47.8039 27.5412C47.8212 27.6342 47.8385 27.7515 47.8463 27.8765C47.8675 28.212 47.8075 28.357 47.783 28.3886C46.7776 29.6818 45.1403 32.1304 43.7031 35.8374C43.6879 35.8453 43.6723 35.8531 43.6563 35.861C43.5723 35.9024 43.4881 35.938 43.4123 35.9622C43.396 35.9674 43.381 35.9717 43.3672 35.9755L42.9002 34.8104L42.0246 35.806L42.0237 35.807C42.022 35.8088 42.0188 35.8125 42.0139 35.8178C42.0042 35.8284 41.9881 35.846 41.9657 35.8698C41.9208 35.9175 41.851 35.99 41.7573 36.0822C41.5697 36.2668 41.2876 36.5294 40.92 36.8296C40.4476 37.2154 39.8381 37.6597 39.1112 38.0788C39.1235 38.0123 39.1365 37.9445 39.1507 37.8755C39.3408 36.946 39.7049 35.8113 40.3968 34.7602C40.4385 34.7735 40.4812 34.7872 40.5246 34.8007C40.705 34.857 40.9052 34.9161 41.086 34.9608C41.2325 34.9972 41.4697 35.0524 41.6702 35.0445C41.973 35.0326 42.3942 34.9126 42.7359 34.5614C42.9727 34.3178 43.1337 34.0007 43.1996 33.6355C43.9045 33.1264 44.5271 32.3245 44.9811 31.5483C45.2727 31.0498 45.521 30.5178 45.694 30.0037C45.861 29.5074 45.9848 28.9488 45.9556 28.4231L45.9103 27.6073L45.2043 27.5027C42.7024 27.1321 38.8881 28.3916 36.1613 31.8326C34.3879 33.3675 32.309 33.961 29.9767 34.0122C27.5999 34.0645 25.0216 33.5534 22.315 32.9462C21.9572 32.8659 21.597 32.7839 21.235 32.7014C18.8915 32.1679 16.472 31.617 14.1274 31.4035C13.2593 31.3246 12.3924 31.2905 11.5336 31.3214C11.8423 31.2111 12.1698 31.1079 12.5169 31.0147L12.5198 31.0139L12.5229 31.013C14.2351 30.5381 15.9146 29.9198 17.5485 29.1633L17.5515 29.1617L17.5546 29.1605C20.6309 27.7044 22.6083 25.3204 24.2557 22.7439C24.8919 21.7491 25.4901 20.7066 26.0785 19.6814C26.2447 19.3918 26.4102 19.1034 26.5755 18.8181C27.3338 17.5087 28.101 16.2364 28.9781 15.0482C29.0186 14.9935 29.0634 14.932 29.1125 14.8649C30.5066 12.9566 35.391 6.27019 45.257 7.20466L45.6553 7.24239L45.9383 6.91811C46.5238 6.24671 47.1312 5.99606 47.8907 5.71772C47.9295 5.70349 47.969 5.68915 48.0089 5.67463C48.1344 5.62888 48.2652 5.5813 48.3997 5.52937C48.212 5.80652 47.9899 5.97808 47.6839 6.17127L46.8242 6.71414L48.0692 8.6748L49.7142 11.2798C49.7294 11.4428 49.7526 11.6656 49.7858 11.9148C49.8501 12.3964 49.9647 13.0836 50.1699 13.6111C50.4347 14.2904 51.1755 15.7881 51.8174 17.0569C52.1449 17.7042 52.4569 18.3123 52.6871 18.7583C52.8022 18.9814 52.8968 19.1641 52.9628 19.2912C52.9958 19.3546 53.0216 19.4043 53.0392 19.4381L53.0458 19.4508C53.1813 19.7705 53.3356 20.0488 53.4619 20.2713C53.4824 20.3074 53.5018 20.3415 53.5202 20.3735C53.6307 20.5676 53.7028 20.6942 53.7555 20.8117C53.5825 21.0153 53.4292 21.2683 53.364 21.5943C53.3182 21.6154 53.2688 21.6375 53.2162 21.6603C52.8489 21.8198 52.4515 21.9612 52.2834 22.0029C51.5206 22.1908 51.1025 21.8924 50.8763 21.5385C50.6106 21.123 50.537 20.5157 50.6903 20.0222L49.1296 19.192M32.2659 24.5111L32.2685 24.5093L32.2717 24.5069C32.2734 24.5058 32.2753 24.5045 32.2772 24.5031L32.2803 24.5011C32.2844 24.4982 32.2892 24.4949 32.2948 24.4912C32.2979 24.489 32.3012 24.4868 32.3048 24.4844C32.3247 24.471 32.3511 24.4536 32.3846 24.4325C32.4516 24.3903 32.546 24.3333 32.6689 24.2654C32.9147 24.1296 33.2735 23.9501 33.7517 23.7569C34.5879 23.4191 35.7868 23.0408 37.3809 22.782C37.6268 20.4461 38.7275 18.1691 41.1599 16.6438C40.841 13.8111 42.6588 11.9584 42.748 11.8675L44.0398 13.1598C43.6727 13.7901 43.5362 14.5233 43.5014 15.1392C43.4843 15.4419 43.4926 15.7004 43.5048 15.8801C43.511 15.9694 43.518 16.038 43.5229 16.0809C43.5254 16.1025 43.5275 16.1175 43.5286 16.1254L43.5289 16.1281C43.633 16.7549 43.8623 17.11 44.1769 17.3825C44.5372 17.6947 45.0325 17.9202 45.7301 18.1926C45.8288 18.2311 45.9303 18.27 46.0345 18.31C46.8825 18.6354 47.9046 19.0275 48.9074 19.7698C48.9373 19.6701 48.9677 19.5818 48.9956 19.5069C49.0283 19.4189 49.0584 19.3469 49.0819 19.2938C49.0936 19.2672 49.1039 19.2453 49.112 19.2282C49.1159 19.2197 49.1196 19.2124 49.1225 19.2064L49.1266 19.1982L49.1282 19.1948L49.129 19.1934L49.1296 19.192M49.8769 19.6892L49.1296 19.192M49.8769 19.6892C49.1296 19.192 49.1296 19.192 49.1296 19.192M53.3645 22.3216L53.3642 22.3194" stroke="#F5B923" stroke-width="1.26697"/>
</g>
</g>
</g>
<defs>
<clipPath id="clip0_0_885">
<rect width="53.44" height="42" fill="white" transform="translate(0.880005 0.940002)"/>
</clipPath>
<clipPath id="clip1_0_885">
<rect width="53.44" height="41.81" fill="white" transform="translate(0.880005 0.940002)"/>
</clipPath>
<clipPath id="clip2_0_885">
<rect width="57.0136" height="41.81" fill="white" transform="translate(-0.906799 0.940002)"/>
</clipPath>
</defs>
</svg>
