<svg width="71" height="40" viewBox="0 0 71 40" fill="none" xmlns="http://www.w3.org/2000/svg">
<g clip-path="url(#clip0_7010_1526)">
<g clip-path="url(#clip1_7010_1526)">
<path d="M25.8305 39.3403L28.5908 28.6749H24.1777L24.7655 26.26H36.6367L36.0583 28.6749H32.2038L29.4434 39.3403H25.8305Z" fill="white"/>
<path d="M34.1305 39.3403L37.4692 26.26H47.0541L46.3385 28.6577H40.6224L39.9032 31.511H45.4998L44.9308 33.797H39.3437L38.5776 36.9425H44.5683L43.7154 39.3403H34.1305Z" fill="white"/>
<path d="M55.4523 39.1475C55.2709 39.1876 55.0175 39.2278 54.6922 39.2679C54.3731 39.308 54.0259 39.3452 53.6505 39.3796C53.2814 39.414 52.906 39.4426 52.5244 39.4655C52.149 39.4884 51.8112 39.4999 51.5109 39.4999C50.6538 39.4999 49.8905 39.4226 49.2211 39.2679C48.5517 39.1132 47.9855 38.8639 47.5225 38.5202C47.0596 38.1764 46.7061 37.7295 46.4621 37.1795C46.2181 36.6237 46.0961 35.9476 46.0961 35.1512C46.0961 34.8419 46.1118 34.5181 46.143 34.1801C46.1743 33.8421 46.2275 33.484 46.3026 33.1058L46.6123 31.6104C46.85 30.4359 47.1847 29.4762 47.6164 28.7314C48.0543 27.9808 48.5861 27.3936 49.2117 26.9696C49.8373 26.5399 50.5599 26.2448 51.3795 26.0844C52.2053 25.924 53.1281 25.8438 54.1479 25.8438C54.4482 25.8438 54.7829 25.8552 55.152 25.8781C55.5211 25.901 55.884 25.9297 56.2406 25.9641C56.6035 25.9984 56.9351 26.0386 57.2353 26.0844C57.5419 26.1245 58.0542 26.2932 58.2231 26.339L57.6448 28.5509C57.407 28.5337 57.0101 28.5165 56.7286 28.4994C56.4471 28.4822 56.153 28.465 55.8465 28.4478C55.5462 28.4306 55.2396 28.4191 54.9268 28.4134C54.6202 28.402 54.3199 28.3962 54.0259 28.3962C53.4941 28.3962 53.0218 28.4449 52.6089 28.5423C52.2022 28.6397 51.8425 28.8202 51.5297 29.0838C51.2231 29.3416 50.9603 29.6997 50.7414 30.158C50.5287 30.6107 50.3504 31.1951 50.2065 31.9112L49.8968 33.4066C49.7842 33.991 49.7279 34.478 49.7279 34.8676C49.7279 35.2802 49.7842 35.6211 49.8968 35.8903C50.0094 36.1539 50.1752 36.363 50.3941 36.5177C50.6194 36.6724 50.8946 36.7813 51.22 36.8443C51.5516 36.9016 51.9301 36.9302 52.3555 36.9302C52.6495 36.9302 52.953 36.9274 53.2658 36.9216C53.5786 36.9102 53.8883 36.8987 54.1948 36.8873C54.5014 36.8758 54.7985 36.8615 55.0863 36.8443C55.3741 36.8214 55.9114 36.8013 56.1492 36.7841L55.4523 39.1475Z" fill="white"/>
<path d="M65.4786 39.3403L66.6763 33.8314H61.1712L59.7083 39.3403H56.3698L59.434 26.26H62.7724L61.631 31.3305H67.2734L68.68 26.26H71.9996L68.7982 39.3403H65.4786Z" fill="white"/>
<path d="M1.54153 5.06806C1.22094 8.95576 5.14821 10.8709 7.15192 11.3425C5.92298 10.9488 4.7252 9.00497 4.27993 8.08225C5.90516 8.98446 10.2911 10.7766 14.8328 10.7274C19.3745 10.6782 21.356 12.6343 21.779 13.6185L13.7642 14.2952L17.972 14.6643L19.8421 15.8946L23.9163 15.1564C31.1831 15.4024 33.6232 20.4261 33.9348 22.9072L30.5953 21.7999C24.7178 20.2252 17.638 22.7431 14.8328 24.199L17.638 21.7999C6.95154 24.1129 1.47474 30.8425 0.0721403 33.9182C-0.515615 38.1504 2.63244 39.3725 4.27993 39.4545H21.3783C23.195 39.4545 23.8272 38.4293 23.9163 37.9166L24.8514 34.4718C25.8131 31.716 23.7382 31.3961 22.5805 31.5807C20.2651 31.5397 14.953 31.4823 12.228 31.5807C9.50294 31.6791 8.73262 30.6375 8.6881 30.1043C8.58123 27.6438 11.0035 26.6185 12.228 26.4135L11.8272 28.0129C16.4758 23.4362 22.1352 22.4561 24.3838 22.5381C24.3838 22.5381 33.022 22.7636 35.0035 23.7684C34.0951 16.3867 27.5452 13.9261 24.3838 13.6185C22.0862 10.9611 17.5935 10.0917 15.6343 9.98919C14.5656 8.90654 15.7679 8.63588 16.5026 8.63588H26.5879C28.2443 8.63588 28.7029 8.06175 28.7252 7.77468L30.9961 2.05386C31.9579 0.626733 30.8625 0.433989 30.1946 0.516009H5.01463C3.99051 0.413485 1.86212 1.18036 1.54153 5.06806Z" fill="#FFC700"/>
<path d="M7.68598 11.9577C2.60991 11.9577 0.539414 8.51292 0.138672 6.79053V10.5429C2.48969 12.4129 6.1498 12.2653 7.68598 11.9577Z" fill="white"/>
<path d="M10.7583 16.5098C4.98765 16.1161 1.27411 17.576 0.138672 18.3552V22.7227C0.138672 19.0319 7.21845 17.0429 10.7583 16.5098Z" fill="white"/>
</g>
</g>
<defs>
<clipPath id="clip0_7010_1526">
<rect width="71" height="39" fill="white" transform="translate(0 0.5)"/>
</clipPath>
<clipPath id="clip1_7010_1526">
<rect width="71" height="39" fill="white" transform="translate(0 0.5)"/>
</clipPath>
</defs>
</svg>
