<svg width="43" height="43" viewBox="0 0 43 43" fill="none" xmlns="http://www.w3.org/2000/svg">
<g clip-path="url(#clip0_0_895)">
<g clip-path="url(#clip1_0_895)">
<path d="M40.5666 13.7322C38.5546 8.95413 34.839 5.09414 30.1411 2.90158C25.4432 0.709009 20.0982 0.340311 15.1437 1.86706C10.1893 3.3938 5.97883 6.70707 3.32989 11.1636C0.680932 15.6202 -0.217568 20.902 0.808829 25.9837C1.83523 31.0655 4.7133 35.5846 8.88428 38.6637C13.0553 41.7427 18.2215 43.1621 23.3802 42.6462C28.5388 42.1303 33.3218 39.716 36.8003 35.872C40.2791 32.0279 42.2052 27.0284 42.205 21.8441C42.2082 19.0576 41.6511 16.2989 40.5666 13.7322ZM40.0096 21.8441C40.0101 23.4137 39.8121 24.9772 39.4201 26.4971L35.2569 25.1447C35.7752 22.9343 35.7662 20.6329 35.2308 18.4263L39.392 17.074C39.8025 18.6307 40.0102 20.234 40.0096 21.8441ZM21.3715 35.025C18.7641 35.0272 16.2146 34.256 14.0456 32.809C11.8766 31.3619 10.1855 29.304 9.18616 26.8958C8.18685 24.4874 7.92428 21.8368 8.43165 19.2793C8.93901 16.7217 10.1935 14.372 12.0365 12.5275C13.8794 10.683 16.2281 9.4266 18.7852 8.91713C21.3424 8.40765 23.9932 8.66805 26.4023 9.66538C28.8115 10.6627 30.8708 12.3521 32.3196 14.52C33.7683 16.6879 34.5417 19.2366 34.5417 21.8441C34.5383 25.3388 33.1485 28.6894 30.6773 31.1606C28.2061 33.6318 24.8555 35.0217 21.3607 35.025H21.3715ZM2.73348 21.8441C2.73326 20.2349 2.94086 18.6323 3.35113 17.0762L7.5122 18.4285C6.97682 20.635 6.96792 22.9364 7.4862 25.1469L3.32078 26.4993C2.9219 24.9795 2.71729 23.4153 2.71181 21.8441H2.73348ZM38.7266 14.9935L34.5677 16.3458C33.8487 14.6264 32.7995 13.0648 31.4794 11.7492C31.1991 11.4703 30.9101 11.2038 30.6126 10.9495L33.159 7.41475C35.6211 9.4292 37.5297 12.0374 38.7049 14.9935H38.7266ZM31.4014 6.12308L28.8332 9.65998C26.9103 8.47812 24.7321 7.77435 22.4811 7.60763V3.22984C25.646 3.41683 28.71 4.41302 31.3798 6.12308H31.4014ZM20.2835 3.22984V7.60763C18.0327 7.77435 15.8545 8.47812 13.9314 9.65998L11.3633 6.12308C14.0331 4.41302 17.097 3.41683 20.2619 3.22984H20.2835ZM9.58404 7.41257L12.137 10.9495C11.838 11.2038 11.549 11.4703 11.2701 11.7492C9.95061 13.0643 8.90143 14.6252 8.18186 16.3436L4.02298 14.9935C5.19709 12.0379 7.10323 9.42921 9.56238 7.41257H9.58404ZM3.99481 28.5863L8.15368 27.2361C8.86885 28.9964 9.9284 30.596 11.2701 31.9411C11.5331 32.2041 11.804 32.4548 12.0829 32.6932L9.51253 36.2301C7.0447 34.1959 5.13785 31.5648 3.97311 28.5863H3.99481ZM11.2701 37.5261L13.8383 33.9913C15.777 35.1949 17.9777 35.9123 20.2532 36.0827V40.4604C17.0555 40.2757 13.9604 39.2646 11.2701 37.5261ZM22.4486 40.4604V36.0827C24.7242 35.9142 26.9252 35.1974 28.8636 33.9935L31.4317 37.5282C28.7436 39.2641 25.6518 40.2743 22.4573 40.4604H22.4486ZM33.2046 36.2322L30.6342 32.6953C30.913 32.4541 31.1847 32.2026 31.4491 31.9411C32.7967 30.5977 33.8616 28.9979 34.5807 27.2361L38.7396 28.5885C37.5792 31.5658 35.6768 34.1971 33.2132 36.2322H33.2046Z" fill="#F5B923"/>
<path d="M16.9448 16.6188C17.117 16.6188 17.2854 16.5677 17.4287 16.472C17.5719 16.3763 17.6835 16.2403 17.7495 16.081C17.8155 15.9219 17.8327 15.7468 17.7991 15.5778C17.7654 15.4088 17.6825 15.2537 17.5607 15.1318C17.4388 15.01 17.2837 14.9271 17.1147 14.8934C16.9457 14.8598 16.7706 14.877 16.6115 14.943C16.4522 15.009 16.3162 15.1206 16.2205 15.2638C16.1248 15.4071 16.0737 15.5755 16.0737 15.7477C16.0741 15.9786 16.166 16.2 16.3293 16.3633C16.4925 16.5265 16.7139 16.6184 16.9448 16.6188Z" fill="#F5B923"/>
<path d="M31.9159 23.4203C32.2031 23.4208 32.4851 23.3427 32.7313 23.1947C32.9774 23.0466 33.1783 22.834 33.3125 22.5802C33.4465 22.3262 33.5085 22.0405 33.4919 21.7538C33.4753 21.4672 33.3805 21.1906 33.218 20.9538C33.0555 20.7169 32.8313 20.5291 32.5696 20.4105C32.3081 20.2918 32.019 20.2469 31.7337 20.2805C31.4483 20.3142 31.1777 20.4251 30.9509 20.6014C30.7241 20.7776 30.5498 21.0124 30.4469 21.2805H23.5257C23.423 20.8804 23.2147 20.5152 22.9225 20.2232C22.6302 19.9312 22.2649 19.7229 21.8647 19.6204V12.6965C22.2084 12.5646 22.4951 12.3166 22.6751 11.9955C22.855 11.6744 22.9168 11.3005 22.8496 10.9387C22.7825 10.5768 22.5908 10.2499 22.3077 10.0146C22.0246 9.77925 21.668 9.65042 21.2998 9.65042C20.9316 9.65042 20.5749 9.77925 20.2919 10.0146C20.0088 10.2499 19.817 10.5768 19.7499 10.9387C19.6829 11.3005 19.7447 11.6744 19.9246 11.9955C20.1045 12.3166 20.3912 12.5646 20.735 12.6965V19.6136C20.3346 19.7163 19.9693 19.9244 19.6771 20.2165C19.3849 20.5086 19.1765 20.8737 19.0738 21.2738H12.1528C12.0206 20.9304 11.7723 20.6441 11.451 20.4646C11.1298 20.2849 10.7557 20.2234 10.3938 20.2906C10.0319 20.3577 9.70491 20.5495 9.46957 20.8323C9.23424 21.1152 9.10541 21.4715 9.10541 21.8394C9.10541 22.2074 9.23424 22.5637 9.46957 22.8466C9.70491 23.1294 10.0319 23.3211 10.3938 23.3883C10.7557 23.4555 11.1298 23.3939 11.451 23.2143C11.7723 23.0347 12.0206 22.7484 12.1528 22.405H19.0738C19.1742 22.8064 19.3808 23.1733 19.6718 23.4673C19.9629 23.7614 20.3278 23.9717 20.7282 24.0764V30.9935C20.3845 31.1254 20.0977 31.3734 19.9178 31.6945C19.7379 32.0156 19.6761 32.3895 19.7433 32.7514C19.8104 33.1131 20.002 33.4401 20.2852 33.6754C20.5683 33.9108 20.9249 34.0396 21.2931 34.0396C21.6613 34.0396 22.0178 33.9108 22.301 33.6754C22.584 33.4401 22.7758 33.1131 22.8429 32.7514C22.91 32.3895 22.8482 32.0156 22.6683 31.6945C22.4884 31.3734 22.2017 31.1254 21.8579 30.9935V24.0764C22.2583 23.9737 22.6236 23.7656 22.9158 23.4735C23.208 23.1814 23.4164 22.8163 23.5189 22.4162H30.4401C30.5557 22.7131 30.7586 22.968 31.022 23.1473C31.2855 23.3265 31.5971 23.4217 31.9159 23.4203Z" fill="#F5B923"/>
</g>
</g>
<defs>
<clipPath id="clip0_0_895">
<rect width="41.81" height="41.81" fill="white" transform="translate(0.394989 0.940002)"/>
</clipPath>
<clipPath id="clip1_0_895">
<rect width="41.81" height="41.81" fill="white" transform="translate(0.394989 0.940002)"/>
</clipPath>
</defs>
</svg>
