<svg width="52" height="43" viewBox="0 0 52 43" fill="none" xmlns="http://www.w3.org/2000/svg">
<g clip-path="url(#clip0_0_855)">
<g clip-path="url(#clip1_0_855)">
<g clip-path="url(#clip2_0_855)">
<mask id="mask0_0_855" style="mask-type:luminance" maskUnits="userSpaceOnUse" x="0" y="0" width="52" height="43">
<path d="M51.0847 0.940002H0.315369V42.75H51.0847V0.940002Z" fill="white"/>
</mask>
<g mask="url(#mask0_0_855)">
<path d="M24.7411 27.521C24.723 27.7931 24.655 28.0197 24.537 28.201C24.4192 28.3823 24.2424 28.5297 24.0066 28.6431C23.8072 28.7383 23.5578 28.8063 23.2585 28.8471C22.9591 28.8835 22.6462 28.9017 22.3198 28.9017V30.5542H24.4554V35.9059H22.3198V37.6738H29.0801V35.9059H26.9923V27.5212L24.7411 27.521Z" fill="white"/>
<path d="M25.7001 0.940002C24.4912 0.940002 23.4116 5.31461 22.4336 6.02508C21.4556 6.73555 16.9607 6.41046 16.5872 7.56015C16.2135 8.70984 20.0412 11.0884 20.4148 12.2379C20.7885 13.3874 19.0902 17.5614 20.0682 18.2719C21.0462 18.9823 24.4914 16.0774 25.7001 16.0774C26.909 16.0774 30.354 18.9823 31.332 18.2719C32.3101 17.5614 30.6117 13.3876 30.9854 12.2379C31.359 11.0882 35.1865 8.70967 34.813 7.56015C34.4393 6.41067 29.9448 6.73555 28.9668 6.02508C27.9888 5.31461 26.909 0.940002 25.7001 0.940002Z" fill="#E4081C"/>
<path d="M34.7793 34.3231C34.7793 32.4381 36.3074 30.91 38.1924 30.91H47.6716C49.5569 30.91 51.0847 32.4381 51.0847 34.3231V42.75H34.7793V34.3231Z" fill="#F7B500"/>
<path d="M17.3619 25.8131C17.3619 23.9281 18.89 22.4 20.775 22.4H29.1426C31.0276 22.4 32.5556 23.9281 32.5556 25.8131V42.75H17.3619V25.8131Z" fill="#FFD300"/>
<path d="M0.315369 30.9931C0.315369 29.1081 1.84345 27.58 3.72843 27.58H12.096C13.981 27.58 15.5091 29.1081 15.5091 30.9931V43.12H0.315369V30.9931Z" fill="#E28900"/>
<path fill-rule="evenodd" clip-rule="evenodd" d="M45.3494 21.2068L45.3827 21.2C44.2304 20.9539 43.3442 20.0262 43.1497 18.8611L43.0605 18.33L42.9775 18.8245C42.7818 19.9905 41.8953 20.9179 40.7417 21.1637L40.7084 21.1708C41.8611 21.4166 42.7463 22.3436 42.9416 23.5087L43.0311 24.0405L43.1139 23.5457C43.3093 22.38 44.1954 21.4526 45.3494 21.2068Z" fill="#F7B500"/>
<path fill-rule="evenodd" clip-rule="evenodd" d="M9.77161 12.8869L9.79426 12.8821C9.01058 12.7144 8.40805 12.0837 8.27545 11.2912L8.21495 10.93L8.15834 11.2663C8.02544 12.0591 7.42257 12.6901 6.63795 12.8571L6.6153 12.8619C7.39928 13.0292 8.00151 13.6603 8.13411 14.4521L8.1946 14.814L8.25088 14.4774C8.38411 13.6842 8.98699 13.0536 9.77161 12.8869Z" fill="#F7B500"/>
<path d="M22.6658 30.2577L24.7904 28.773H26.7998V37.7323H24.56V31.3584L22.6658 32.6639V30.2577Z" fill="#E28900"/>
<path d="M22.2952 29.8878L24.4199 28.4031H26.4293V37.3624H24.1895V30.9885L22.2952 32.294V29.8878Z" fill="#F9B32A"/>
<path d="M5.81067 39.2426V37.6555L8.78003 35.5769C9.0599 35.379 9.26127 35.2288 9.38414 35.1264C9.51384 35.0172 9.60941 34.9046 9.67084 34.7885C9.7391 34.6656 9.77323 34.5189 9.77323 34.3482C9.77323 34.0957 9.68449 33.8943 9.50701 33.7441C9.33636 33.5871 9.09403 33.5086 8.78003 33.5086C8.4319 33.5086 8.15203 33.6008 7.94042 33.7851C7.73564 33.9626 7.623 34.2117 7.60253 34.5325H5.81067C5.82432 34.0752 5.93695 33.652 6.14856 33.2629C6.36017 32.867 6.68783 32.5461 7.13152 32.3004C7.58205 32.0478 8.1452 31.9215 8.82099 31.9215C9.40804 31.9215 9.90976 32.0205 10.3261 32.2185C10.7425 32.4164 11.06 32.6895 11.2784 33.0376C11.4968 33.3789 11.606 33.768 11.606 34.2049C11.606 34.5598 11.548 34.8704 11.432 35.1366C11.3159 35.4029 11.135 35.652 10.8893 35.8841C10.6504 36.1162 10.3193 36.379 9.8961 36.6725L8.4831 37.6555V37.7067H11.7494V39.2426H5.81067Z" fill="#FFD200"/>
<path d="M5.44006 38.8726V37.2855L8.40943 35.2069C8.6893 35.009 8.89067 34.8588 9.01354 34.7564C9.14323 34.6472 9.2388 34.5346 9.30024 34.4185C9.3685 34.2956 9.40263 34.1489 9.40263 33.9782C9.40263 33.7257 9.31389 33.5243 9.13641 33.3741C8.96576 33.2171 8.72343 33.1386 8.40943 33.1386C8.06129 33.1386 7.78142 33.2308 7.56981 33.4151C7.36503 33.5926 7.2524 33.8417 7.23192 34.1625H5.44006C5.45372 33.7052 5.56635 33.282 5.77796 32.8929C5.98957 32.497 6.31722 32.1761 6.76092 31.9304C7.21144 31.6778 7.7746 31.5515 8.45038 31.5515C9.03743 31.5515 9.53915 31.6505 9.95554 31.8485C10.3719 32.0464 10.6894 32.3195 10.9078 32.6676C11.1262 33.0089 11.2354 33.398 11.2354 33.8349C11.2354 34.1898 11.1774 34.5004 11.0614 34.7666C10.9453 35.0329 10.7644 35.282 10.5187 35.5141C10.2798 35.7462 9.94872 36.009 9.5255 36.3025L8.11249 37.2855V37.3367H11.3788V38.8726H5.44006Z" fill="#F7B500"/>
<path d="M44.2697 36.0521C45.0478 36.0657 45.6519 36.25 46.082 36.605C46.512 36.96 46.7271 37.4753 46.7271 38.1511C46.7271 38.588 46.6144 38.9839 46.3892 39.3389C46.1639 39.6938 45.8226 39.9771 45.3652 40.1887C44.9079 40.4003 44.3482 40.5061 43.686 40.5061C43.0444 40.5061 42.4881 40.4037 42.0171 40.199C41.5529 39.9942 41.1945 39.7143 40.942 39.3593C40.6894 38.9976 40.5495 38.5948 40.5222 38.1511H42.2935C42.3208 38.4242 42.4471 38.6392 42.6724 38.7962C42.8976 38.9464 43.2253 39.0215 43.6553 39.0215C44.0649 39.0215 44.3789 38.9361 44.5973 38.7655C44.8226 38.588 44.9352 38.3593 44.9352 38.0794C44.9352 37.4788 44.5154 37.1784 43.6758 37.1784H42.0887V36.0214L44.0239 34.721V34.6698H41.1058V33.1851H46.2868V34.6596L44.2697 36.0009V36.0521Z" fill="#E28900"/>
<path d="M43.8989 36.0521C44.677 36.0657 45.2811 36.25 45.7112 36.605C46.1412 36.96 46.3563 37.4753 46.3563 38.1511C46.3563 38.588 46.2436 38.9839 46.0184 39.3389C45.7931 39.6938 45.4518 39.9771 44.9945 40.1887C44.5371 40.4003 43.9774 40.5061 43.3152 40.5061C42.6737 40.5061 42.1174 40.4037 41.6464 40.199C41.1822 39.9942 40.8239 39.7143 40.5713 39.3593C40.3187 38.9976 40.1788 38.5948 40.1515 38.1511H41.9229C41.9502 38.4242 42.0765 38.6392 42.3017 38.7962C42.527 38.9464 42.8546 39.0215 43.2845 39.0215C43.6941 39.0215 44.0081 38.9361 44.2265 38.7655C44.4518 38.588 44.5644 38.3593 44.5644 38.0794C44.5644 37.4788 44.1446 37.1784 43.305 37.1784H41.7181V36.0214L43.6531 34.721V34.6698H40.7351V33.1851H45.916V34.6596L43.8989 36.0009V36.0521Z" fill="#FCD842"/>
</g>
</g>
</g>
</g>
<defs>
<clipPath id="clip0_0_855">
<rect width="50.77" height="42" fill="white" transform="translate(0.315002 0.940002)"/>
</clipPath>
<clipPath id="clip1_0_855">
<rect width="50.77" height="41.81" fill="white" transform="translate(0.315002 0.940002)"/>
</clipPath>
<clipPath id="clip2_0_855">
<rect width="50.7693" height="41.81" fill="white" transform="translate(0.315369 0.940002)"/>
</clipPath>
</defs>
</svg>
