<svg width="42" height="43" viewBox="0 0 42 43" fill="none" xmlns="http://www.w3.org/2000/svg">
<g clip-path="url(#clip0_0_904)">
<g clip-path="url(#clip1_0_904)">
<g clip-path="url(#clip2_0_904)">
<path d="M40.8553 30.6388C40.8524 30.6161 40.847 30.5938 40.8391 30.5722C40.8331 30.5496 40.8245 30.528 40.8133 30.5074C40.2818 29.0929 38.8361 28.019 37.8204 26.9689C36.457 25.5598 35.1048 24.144 33.6981 22.7771C32.3437 21.4615 30.9674 20.1637 29.5453 18.9196C30.5951 18.2382 31.8684 17.412 32.0899 16.1481C32.2764 15.0861 31.5838 14.4559 30.9039 13.7954L31.4074 13.1754C31.995 14.2359 32.6946 15.2436 33.5758 16.0808C33.987 16.4716 34.9884 17.5407 35.5995 17.0588C36.0724 16.6859 35.7193 16.2163 35.4752 15.8295C35.0772 15.196 34.6549 14.5779 34.2001 13.9834C33.6286 13.2367 33.0073 12.5227 32.2943 11.9077C32.4445 11.3673 32.3226 10.7763 31.7274 10.5459C31.2198 10.3493 30.7845 10.5776 30.3934 10.8691C29.6168 9.60197 28.7592 8.36768 27.7247 7.29666C27.3678 6.92719 26.3316 5.6754 25.7476 6.14749C25.1911 6.59728 25.8955 7.48152 26.1395 7.92172C26.5173 8.61037 26.9548 9.26449 27.4471 9.8765C28.0031 10.5627 28.6499 11.1894 29.3919 11.673L29.0562 11.9452C28.396 11.2652 27.7657 10.5728 26.7037 10.759C25.4404 10.9806 24.6145 12.2528 23.9334 13.3027C22.3622 11.5031 20.7054 9.77219 19.0222 8.07876C17.4758 6.52487 15.8967 4.99183 14.3087 3.47607C13.3439 2.55587 12.1282 1.46207 10.7125 2.10559C9.42059 2.69205 8.77329 4.28142 8.54002 5.58884C8.28757 7.00751 8.53618 8.46597 8.8687 9.85084C9.59535 12.8764 10.8849 15.7715 12.2785 18.5424C13.12 20.2162 14.0147 21.8751 15.001 23.4688L10.0364 29.0569C8.80229 28.0324 7.50626 27.0551 6.07933 26.3164C4.99571 25.7554 3.85623 25.2637 2.68438 25.8849C1.62953 26.4447 0.821362 27.7311 1.13614 28.9444C1.32482 29.6707 1.88796 30.3432 2.33268 30.9301C2.84855 31.6061 3.40076 32.2535 3.98688 32.8693C4.69172 33.6148 5.43275 34.336 6.21646 35.001C5.87651 35.5912 5.35196 36.407 5.89929 36.9544C6.44661 37.5018 7.26173 36.9784 7.85173 36.6372C8.37723 37.2551 8.93942 37.8446 9.516 38.4138C10.6819 39.5647 11.9853 40.7894 13.4578 41.5413C14.5972 42.1234 15.9326 41.5611 16.6777 40.6088C17.5265 39.5242 17.3037 38.403 16.7677 37.2433C16.0206 35.6283 14.9315 34.1804 13.7978 32.8157L19.3837 27.851C21.4488 29.13 23.6146 30.2706 25.8099 31.3054C27.6799 32.1869 29.5978 32.9913 31.5787 33.5946C33.3514 34.1348 35.3261 34.6381 37.1858 34.3262C38.9587 34.03 41.3995 32.7965 40.8553 30.6388ZM33.1894 13.6585C33.537 14.0676 33.8625 14.494 34.1723 14.9319C34.3452 15.1756 34.513 15.4225 34.6757 15.6725C34.7815 15.8341 35.1984 16.3184 35.1624 16.4973C35.131 16.654 35.195 16.5356 35.0689 16.5143C35.0209 16.5063 34.9521 16.4395 34.9123 16.4131C34.7723 16.3196 34.6365 16.2205 34.5047 16.1158C34.1993 15.871 33.9119 15.6046 33.6446 15.3186C32.9028 14.5326 32.3133 13.6254 31.8034 12.6765L31.9952 12.4273C32.4211 12.8097 32.8202 13.2211 33.1894 13.6585ZM31.7007 11.8536L31.2432 12.4503L30.4872 13.3818C30.1479 13.0428 29.8089 12.7037 29.47 12.3645L30.106 11.849L30.522 11.5114C30.644 11.4124 30.7641 11.2909 30.9003 11.2124C31.4261 10.9093 31.9976 11.1832 31.7007 11.8536ZM28.2418 9.90694C27.832 9.4511 27.461 8.9619 27.1326 8.4444C26.9431 8.14949 26.7652 7.84771 26.5987 7.53906C26.5543 7.45754 26.0765 6.58266 26.052 6.61886C26.1033 6.54261 27.5719 7.99245 27.6624 8.09339C28.5254 9.05891 29.2569 10.1335 29.9308 11.2379L29.8742 11.2839C29.2628 10.9116 28.7235 10.4366 28.2418 9.90694ZM10.0305 11.7653C9.1818 9.19149 8.23243 5.80247 10.0511 3.40966C10.4644 2.86587 11.0609 2.42975 11.7741 2.50456C12.5604 2.58703 13.207 3.24662 13.7541 3.75947C15.2477 5.15919 16.7111 6.60591 18.1615 8.05119C20.0228 9.90527 21.8511 11.8061 23.5772 13.7887L16.2225 22.0911C15.9508 22.3976 15.679 22.7041 15.4074 23.0108C13.2368 19.4914 11.3236 15.6869 10.0305 11.7653ZM16.5727 39.628C16.2882 40.3837 15.5641 41.0263 14.7632 41.1708C13.8548 41.3346 13.0449 40.6301 12.3631 40.1231C11.6288 39.5767 10.9393 38.9694 10.2774 38.3371C9.52367 37.6161 8.79102 36.8604 8.12407 36.0593C8.03873 35.9567 7.87666 35.957 7.76829 36.0133L7.23895 36.2873C7.11764 36.3504 6.99705 36.4157 6.87478 36.4768C6.66261 36.5825 6.65782 36.6391 6.43606 36.4173C6.2203 36.2016 6.25817 36.2188 6.3591 36.0127C6.41664 35.8951 6.47898 35.7801 6.54035 35.664L6.84122 35.085C6.89708 34.9776 6.89732 34.8138 6.79543 34.7289C5.99302 34.0612 5.23713 33.3292 4.51791 32.5754C3.88571 31.9141 3.27821 31.2246 2.73208 30.4895C2.2248 29.8076 1.52044 28.9979 1.68418 28.0893C1.82803 27.2885 2.47149 26.5641 3.22691 26.2795C3.92215 26.0182 4.55962 26.2541 5.20117 26.5408C6.9117 27.3055 8.43477 28.4722 9.86094 29.6697C9.97675 29.7671 10.1635 29.7966 10.2762 29.6697C12.042 27.6825 13.8081 25.695 15.5744 23.7074C18.0861 20.8718 20.5978 18.0357 23.1098 15.1992L24.1746 13.9971C24.1832 13.9866 24.1913 13.9756 24.1986 13.9642C24.2065 13.9557 24.2138 13.9469 24.2206 13.9376C24.4364 13.6103 24.6678 13.2916 24.902 12.9768C25.3846 12.3278 25.8729 11.5481 26.7164 11.3565C27.6753 11.1388 28.2267 11.9535 28.8246 12.5508L30.3019 14.0265C30.8989 14.6237 31.7135 15.1774 31.4958 16.135C31.3104 16.9502 30.5761 17.4249 29.9485 17.8948C29.6102 18.1482 29.2677 18.3983 28.915 18.6309C28.9057 18.6377 28.8968 18.6451 28.8884 18.6529C28.877 18.6603 28.866 18.6683 28.8555 18.677L20.3475 26.2155L19.1454 27.2805L13.1836 32.5793C13.0577 32.691 13.0876 32.8789 13.1836 32.9947C14.3823 34.4209 15.5476 35.9438 16.3121 37.6547C16.5989 38.2964 16.835 38.9312 16.5727 39.628ZM36.4231 33.8272C34.6585 33.9308 32.8179 33.3896 31.1588 32.8469C27.794 31.7463 24.5862 30.1509 21.5085 28.4143C20.9491 28.0991 20.392 27.7785 19.8432 27.4445L28.0682 20.1572L29.0629 19.2758C30.4134 20.4531 31.7207 21.683 33.0088 22.9272C34.3595 24.2318 35.6807 25.5657 36.9722 26.929C37.5787 27.57 38.2106 28.1853 38.8244 28.8193C39.3619 29.3746 40.0095 29.9831 40.273 30.7286C40.8483 32.7934 37.9736 33.7363 36.4231 33.8272Z" fill="#F5B923"/>
<path d="M40.8553 30.6388C40.8524 30.6161 40.847 30.5938 40.8391 30.5722C40.8331 30.5496 40.8245 30.528 40.8133 30.5074C40.2818 29.0929 38.8361 28.019 37.8204 26.9689C36.457 25.5598 35.1048 24.144 33.6981 22.7771C32.3437 21.4615 30.9674 20.1637 29.5453 18.9196C30.5951 18.2382 31.8684 17.412 32.0899 16.1481C32.2764 15.0861 31.5838 14.4559 30.9039 13.7954L31.4074 13.1754C31.995 14.2359 32.6946 15.2436 33.5758 16.0808C33.987 16.4716 34.9884 17.5407 35.5995 17.0588C36.0724 16.6859 35.7193 16.2163 35.4752 15.8295C35.0772 15.196 34.6549 14.5779 34.2001 13.9834C33.6286 13.2367 33.0073 12.5227 32.2943 11.9077C32.4445 11.3673 32.3226 10.7763 31.7274 10.5459C31.2198 10.3493 30.7845 10.5776 30.3934 10.8691C29.6168 9.60197 28.7592 8.36768 27.7247 7.29666C27.3678 6.92719 26.3316 5.6754 25.7476 6.14749C25.1911 6.59728 25.8955 7.48152 26.1395 7.92172C26.5173 8.61037 26.9548 9.26449 27.4471 9.8765C28.0031 10.5627 28.6499 11.1894 29.3919 11.673L29.0562 11.9452C28.396 11.2652 27.7657 10.5728 26.7037 10.759C25.4404 10.9806 24.6145 12.2528 23.9334 13.3027C22.3622 11.5031 20.7054 9.77219 19.0222 8.07876C17.4758 6.52487 15.8967 4.99183 14.3087 3.47607C13.3439 2.55587 12.1282 1.46207 10.7125 2.10559C9.42059 2.69205 8.77329 4.28142 8.54002 5.58884C8.28757 7.00751 8.53618 8.46597 8.8687 9.85084C9.59535 12.8764 10.8849 15.7715 12.2785 18.5424C13.12 20.2162 14.0147 21.8751 15.001 23.4688L10.0364 29.0569C8.80229 28.0324 7.50626 27.0551 6.07933 26.3164C4.99571 25.7554 3.85623 25.2637 2.68438 25.8849C1.62953 26.4447 0.821362 27.7311 1.13614 28.9444C1.32482 29.6707 1.88796 30.3432 2.33268 30.9301C2.84855 31.6061 3.40076 32.2535 3.98688 32.8693C4.69172 33.6148 5.43275 34.336 6.21646 35.001C5.87651 35.5912 5.35196 36.407 5.89929 36.9544C6.44661 37.5018 7.26173 36.9784 7.85173 36.6372C8.37723 37.2551 8.93942 37.8446 9.516 38.4138C10.6819 39.5647 11.9853 40.7894 13.4578 41.5413C14.5972 42.1234 15.9326 41.5611 16.6777 40.6088C17.5265 39.5242 17.3037 38.403 16.7677 37.2433C16.0206 35.6283 14.9315 34.1804 13.7978 32.8157L19.3837 27.851C21.4488 29.13 23.6146 30.2706 25.8099 31.3054C27.6799 32.1869 29.5978 32.9913 31.5787 33.5946C33.3514 34.1348 35.3261 34.6381 37.1858 34.3262C38.9587 34.03 41.3995 32.7965 40.8553 30.6388ZM33.1894 13.6585C33.537 14.0676 33.8625 14.494 34.1723 14.9319C34.3452 15.1756 34.513 15.4225 34.6757 15.6725C34.7815 15.8341 35.1984 16.3184 35.1624 16.4973C35.131 16.654 35.195 16.5356 35.0689 16.5143C35.0209 16.5063 34.9521 16.4395 34.9123 16.4131C34.7723 16.3196 34.6365 16.2205 34.5047 16.1158C34.1993 15.871 33.9119 15.6046 33.6446 15.3186C32.9028 14.5326 32.3133 13.6254 31.8034 12.6765L31.9952 12.4273C32.4211 12.8097 32.8202 13.2211 33.1894 13.6585ZM31.7007 11.8536L31.2432 12.4503L30.4872 13.3818C30.1479 13.0428 29.8089 12.7037 29.47 12.3645L30.106 11.849L30.522 11.5114C30.644 11.4124 30.7641 11.2909 30.9003 11.2124C31.4261 10.9093 31.9976 11.1832 31.7007 11.8536ZM28.2418 9.90694C27.832 9.4511 27.461 8.9619 27.1326 8.4444C26.9431 8.14949 26.7652 7.84771 26.5987 7.53906C26.5543 7.45754 26.0765 6.58266 26.052 6.61886C26.1033 6.54261 27.5719 7.99245 27.6624 8.09339C28.5254 9.05891 29.2569 10.1335 29.9308 11.2379L29.8742 11.2839C29.2628 10.9116 28.7235 10.4366 28.2418 9.90694ZM10.0305 11.7653C9.1818 9.19149 8.23243 5.80247 10.0511 3.40966C10.4644 2.86587 11.0609 2.42975 11.7741 2.50456C12.5604 2.58703 13.207 3.24662 13.7541 3.75947C15.2477 5.15919 16.7111 6.60591 18.1615 8.05119C20.0228 9.90527 21.8511 11.8061 23.5772 13.7887L16.2225 22.0911C15.9508 22.3976 15.679 22.7041 15.4074 23.0108C13.2368 19.4914 11.3236 15.6869 10.0305 11.7653ZM16.5727 39.628C16.2882 40.3837 15.5641 41.0263 14.7632 41.1708C13.8548 41.3346 13.0449 40.6301 12.3631 40.1231C11.6288 39.5767 10.9393 38.9694 10.2774 38.3371C9.52367 37.6161 8.79102 36.8604 8.12407 36.0593C8.03873 35.9567 7.87666 35.957 7.76829 36.0133L7.23895 36.2873C7.11764 36.3504 6.99705 36.4157 6.87478 36.4768C6.66261 36.5825 6.65782 36.6391 6.43606 36.4173C6.2203 36.2016 6.25817 36.2188 6.3591 36.0127C6.41664 35.8951 6.47898 35.7801 6.54035 35.664L6.84122 35.085C6.89708 34.9776 6.89732 34.8138 6.79543 34.7289C5.99302 34.0612 5.23713 33.3292 4.51791 32.5754C3.88571 31.9141 3.27821 31.2246 2.73208 30.4895C2.2248 29.8076 1.52044 28.9979 1.68418 28.0893C1.82803 27.2885 2.47149 26.5641 3.22691 26.2795C3.92215 26.0182 4.55962 26.2541 5.20117 26.5408C6.9117 27.3055 8.43477 28.4722 9.86094 29.6697C9.97675 29.7671 10.1635 29.7966 10.2762 29.6697C12.042 27.6825 13.8081 25.695 15.5744 23.7074C18.0861 20.8718 20.5978 18.0357 23.1098 15.1992L24.1746 13.9971C24.1832 13.9866 24.1913 13.9756 24.1986 13.9642C24.2065 13.9557 24.2138 13.9469 24.2206 13.9376C24.4364 13.6103 24.6678 13.2916 24.902 12.9768C25.3846 12.3278 25.8729 11.5481 26.7164 11.3565C27.6753 11.1388 28.2267 11.9535 28.8246 12.5508L30.3019 14.0265C30.8989 14.6237 31.7135 15.1774 31.4958 16.135C31.3104 16.9502 30.5761 17.4249 29.9485 17.8948C29.6102 18.1482 29.2677 18.3983 28.915 18.6309C28.9057 18.6377 28.8968 18.6451 28.8884 18.6529C28.877 18.6603 28.866 18.6683 28.8555 18.677L20.3475 26.2155L19.1454 27.2805L13.1836 32.5793C13.0577 32.691 13.0876 32.8789 13.1836 32.9947C14.3823 34.4209 15.5476 35.9438 16.3121 37.6547C16.5989 38.2964 16.835 38.9312 16.5727 39.628ZM36.4231 33.8272C34.6585 33.9308 32.8179 33.3896 31.1588 32.8469C27.794 31.7463 24.5862 30.1509 21.5085 28.4143C20.9491 28.0991 20.392 27.7785 19.8432 27.4445L28.0682 20.1572L29.0629 19.2758C30.4134 20.4531 31.7207 21.683 33.0088 22.9272C34.3595 24.2318 35.6807 25.5657 36.9722 26.929C37.5787 27.57 38.2106 28.1853 38.8244 28.8193C39.3619 29.3746 40.0095 29.9831 40.273 30.7286C40.8483 32.7934 37.9736 33.7363 36.4231 33.8272Z" stroke="#F5B923" stroke-width="0.972326"/>
<path d="M23.8043 16.4954L27.1609 19.0339L27.4039 19.0279C27.3542 17.0398 25.8046 15.4911 23.8161 15.4411C23.6557 15.4372 23.5169 15.4993 23.422 15.608C23.3319 15.7112 23.2938 15.8414 23.2938 15.9615C23.2939 16.082 23.3322 16.2109 23.4191 16.3145C23.5099 16.423 23.6441 16.4913 23.8043 16.4954Z" fill="#F5B923" stroke="#F5B923" stroke-width="0.486163"/>
</g>
</g>
</g>
<defs>
<clipPath id="clip0_0_904">
<rect width="41.81" height="42" fill="white" transform="translate(0.0950012 0.940002)"/>
</clipPath>
<clipPath id="clip1_0_904">
<rect width="41.81" height="41.81" fill="white" transform="translate(0.0950012 0.940002)"/>
</clipPath>
<clipPath id="clip2_0_904">
<rect width="41.81" height="41.81" fill="white" transform="translate(0.0950012 0.940002)"/>
</clipPath>
</defs>
</svg>
