<svg width="43" height="43" viewBox="0 0 43 43" fill="none" xmlns="http://www.w3.org/2000/svg">
<g clip-path="url(#clip0_0_877)">
<g clip-path="url(#clip1_0_877)">
<g clip-path="url(#clip2_0_877)">
<path d="M21.3746 42.75C16.1923 42.7436 11.1972 40.8128 7.35814 37.3319C3.51907 33.851 1.1097 29.0683 0.597429 23.9115C0.085163 18.7547 1.50653 13.5915 4.58577 9.42332C7.66502 5.2552 12.1826 2.37935 17.2623 1.35364C22.342 0.327928 27.6216 1.22547 32.0769 3.87217C36.5322 6.51887 39.8456 10.7261 41.3745 15.6776C42.9033 20.6291 42.5387 25.972 40.3511 30.6698C38.1635 35.3676 34.3089 39.0855 29.5353 41.1021C26.9536 42.1951 24.1779 42.7556 21.3746 42.75ZM21.3746 3.03752C17.6655 3.03752 14.0398 4.13735 10.956 6.19795C7.87204 8.25855 5.46843 11.1874 4.04907 14.614C2.62971 18.0406 2.25832 21.8112 2.98191 25.4489C3.70549 29.0866 5.49155 32.4282 8.11419 35.0507C10.7368 37.6733 14.0783 39.4594 17.716 40.183C21.3537 40.9066 25.1243 40.5352 28.5509 39.1159C31.9776 37.6964 34.9064 35.2928 36.967 32.209C39.0276 29.1251 40.1274 25.4994 40.1274 21.7904C40.1227 16.8183 38.1456 12.0511 34.6297 8.53523C31.1139 5.01938 26.3467 3.04215 21.3746 3.03752Z" fill="#F5B923"/>
<path d="M21.3831 35.7818C17.9283 35.7775 14.5983 34.4903 12.0389 32.1696C9.47948 29.8491 7.87325 26.6606 7.53173 23.2228C7.19022 19.7849 8.1378 16.3427 10.1906 13.5639C12.2435 10.7852 15.2552 8.86799 18.6417 8.18417C22.028 7.50037 25.5477 8.09873 28.518 9.8632C31.4883 11.6277 33.6972 14.4324 34.7164 17.7334C35.7357 21.0345 35.4925 24.5964 34.0341 27.7282C32.5758 30.8602 30.0061 33.3387 26.8237 34.6831C25.1026 35.4118 23.252 35.7855 21.3831 35.7818ZM21.3831 9.30677C18.9105 9.30677 16.4933 10.04 14.4374 11.4137C12.3814 12.7874 10.7791 14.74 9.83282 17.0244C8.88658 19.3089 8.639 21.8226 9.12138 24.2477C9.60377 26.6729 10.7945 28.9004 12.5429 30.6489C14.2913 32.3974 16.519 33.588 18.9441 34.0705C21.3692 34.5528 23.883 34.3052 26.1674 33.359C28.4518 32.4127 30.4043 30.8103 31.7781 28.7544C33.1518 26.6984 33.885 24.2814 33.885 21.8088C33.882 18.4939 32.5638 15.3158 30.2199 12.9719C27.876 10.628 24.6978 9.30985 21.3831 9.30677Z" fill="#F5B923" stroke="#F5B923" stroke-width="1.16139"/>
<path d="M26.9189 20.8786C27.6086 21.3383 27.6086 22.3516 26.9189 22.8113L19.7216 27.6096C18.9498 28.1241 17.916 27.5708 17.916 26.6432V17.0466C17.916 16.119 18.9498 15.5658 19.7216 16.0803L26.9189 20.8786Z" fill="#F5B923"/>
</g>
</g>
</g>
<defs>
<clipPath id="clip0_0_877">
<rect width="41.81" height="42" fill="white" transform="translate(0.494995 0.940002)"/>
</clipPath>
<clipPath id="clip1_0_877">
<rect width="41.81" height="41.81" fill="white" transform="translate(0.494995 0.940002)"/>
</clipPath>
<clipPath id="clip2_0_877">
<rect width="41.81" height="41.81" fill="white" transform="translate(0.494995 0.940002)"/>
</clipPath>
</defs>
</svg>
